<svg width="52" height="68" fill="none" xmlns="http://www.w3.org/2000/svg"><g clip-path="url(#clip0_206_376)"><path fill-rule="evenodd" clip-rule="evenodd" d="M25.973 60.004c1.209 0 2.188.99 2.188 2.213s-.98 2.214-2.188 2.214c-1.21 0-2.188-.99-2.188-2.214 0-1.223.979-2.213 2.188-2.213zM11.838 37.342a1.324 1.324 0 00-.115-.188 19.66 19.66 0 01-.575-.99c-.191-.388-.383-.753-.552-1.09a15 15 0 01-.476-1.14c-.12-.338-.263-.725-.405-1.185a1.537 1.537 0 00-1.46-1.062H4.114a.894.894 0 01-.383-.072.885.885 0 01-.285-.216 1.18 1.18 0 01-.213-.288.906.906 0 01-.071-.387v-5.28c0-.143.022-.265.049-.365.05-.1.12-.215.24-.337.094-.094.192-.172.285-.194a.894.894 0 01.383-.072h3.802c.766 0 1.39-.559 1.532-1.284.093-.41.191-.797.284-1.14.12-.387.24-.752.383-1.14.142-.365.284-.752.476-1.112.17-.387.36-.725.525-1.062a1.55 1.55 0 00-.263-1.838l-2.964-3.027c-.022-.022-.022-.022-.05-.022a1.083 1.083 0 01-.213-.288c-.05-.094-.05-.193-.05-.337a.82.82 0 01.072-.365.995.995 0 01.24-.338l3.66-3.68a.985.985 0 01.334-.243.779.779 0 01.36-.072c.143 0 .263.022.362.072.098.05.213.121.312.215h.022l2.702 2.734a1.522 1.522 0 001.964.172c.311-.194.623-.388.979-.581.383-.194.744-.388 1.078-.56.36-.17.743-.337 1.126-.48.334-.122.717-.266 1.171-.41a1.552 1.552 0 001.05-1.478V4.018a.93.93 0 01.071-.388c.05-.094.12-.193.192-.288.098-.094.191-.171.284-.193a.878.878 0 01.383-.072h4.097c.143 0 .285.022.383.072.093.022.192.1.285.193.07.095.142.194.191.288.05.094.071.244.071.388v4.189c0 .653.405 1.256 1.05 1.477.455.144.838.288 1.171.41.383.144.766.315 1.127.481.334.172.695.365 1.078.56.36.193.667.386.979.58a1.51 1.51 0 001.964-.171L39.04 8.81h.022c.093-.094.213-.172.312-.216a.764.764 0 01.36-.072c.143 0 .263.022.362.072.12.05.213.122.334.244l3.659 3.68c.12.121.191.215.24.337.05.094.072.216.072.365 0 .144 0 .244-.05.338-.049.1-.12.194-.213.288-.022 0-.022 0-.049.022l-2.965 3.027a1.551 1.551 0 00-.262 1.837c.17.338.36.675.525 1.063.191.365.333.752.476 1.112.142.387.262.753.383 1.14.093.337.191.725.284 1.14.142.725.766 1.284 1.532 1.284h3.801c.143 0 .285.022.383.072a.624.624 0 01.285.193c.12.122.191.244.24.338.022.094.05.216.05.365v5.28a.924.924 0 01-.071.387c-.05.1-.12.193-.214.288a.814.814 0 01-.284.215.894.894 0 01-.383.072h-4.141c-.645 0-1.242.41-1.46 1.063-.143.46-.285.846-.405 1.184-.143.387-.312.775-.476 1.14-.17.338-.361.703-.553 1.09-.191.365-.383.68-.574.99a1.362 1.362 0 00-.115.189h3.621c.153-.31.307-.642.465-.985.192-.437.383-.869.553-1.306.022-.072.07-.172.098-.244h3.064a4.12 4.12 0 001.553-.287c.476-.194.935-.51 1.318-.897s.695-.824.887-1.334a4.376 4.376 0 00.284-1.571v-5.274c0-.531-.12-1.062-.312-1.55a3.887 3.887 0 00-.859-1.305l-.021-.023c-.383-.387-.816-.702-1.291-.896a3.754 3.754 0 00-1.554-.315h-2.61c0-.072-.021-.122-.048-.194-.143-.46-.285-.919-.454-1.356-.192-.46-.362-.896-.553-1.306-.022-.05-.071-.122-.093-.194l2.155-2.202a3.68 3.68 0 00.908-1.284 4.276 4.276 0 00.312-1.572c0-.558-.093-1.062-.312-1.571a4.335 4.335 0 00-.886-1.306h-.022l-3.66-3.68a4.172 4.172 0 00-1.318-.897 3.845 3.845 0 00-1.553-.315c-.525 0-1.05.094-1.554.315-.503.194-.935.51-1.318.897L35.08 8.55l-.143-.072c-.383-.216-.815-.41-1.269-.631-.432-.194-.859-.387-1.29-.559-.072-.022-.17-.072-.241-.1V4.09a4.24 4.24 0 00-.285-1.572 4.022 4.022 0 00-.886-1.334c-.405-.387-.837-.703-1.318-.896A4.189 4.189 0 0028.095 0H23.9a4.21 4.21 0 00-1.553.288c-.476.193-.908.509-1.318.896a4.02 4.02 0 00-.887 1.334 4.262 4.262 0 00-.284 1.572v3.098c-.071.023-.17.072-.24.1-.433.172-.86.365-1.292.559-.454.216-.886.41-1.269.63l-.142.073-1.865-1.865c-.383-.387-.816-.703-1.319-.897a3.92 3.92 0 00-1.553-.315c-.553 0-1.05.094-1.554.315-.503.216-.935.51-1.318.897l-3.66 3.68h-.022a4.438 4.438 0 00-.886 1.306 3.923 3.923 0 00-.312 1.566c0 .559.12 1.09.312 1.572.214.481.503.918.908 1.283l2.156 2.203c-.022.072-.072.144-.093.194-.192.41-.361.846-.553 1.306-.17.437-.312.896-.454 1.355-.022.072-.05.122-.05.194H4.044c-.553 0-1.078.1-1.554.316-.476.193-.908.509-1.291.896l-.022.022a3.888 3.888 0 00-.859 1.306A4.198 4.198 0 000 25.44v5.274c0 .559.093 1.062.284 1.572.192.509.504.946.887 1.333a3.97 3.97 0 001.318.897 4.128 4.128 0 001.554.287h3.063c.022.072.07.172.098.244.17.437.361.869.553 1.306.164.349.312.68.465.985h3.616v.005zm5.924-4.897c-.454.017-.804.11-1.04.277a.816.816 0 00-.295.348 1.261 1.261 0 00-.098.56c.016.63.344 1.46.979 2.417l.01.012 2.058 3.314c.826 1.329 1.69 2.684 2.767 3.675 1.034.957 2.287 1.605 3.95 1.61 1.794.006 3.113-.67 4.18-1.677 1.11-1.051 1.985-2.49 2.844-3.929l2.32-3.862c.431-.996.59-1.666.492-2.059-.06-.232-.312-.348-.75-.37-.093-.006-.186-.006-.284-.006-.104.005-.214.01-.323.022-.06.006-.12 0-.18-.011a3.506 3.506 0 01-.635-.033l.793-3.558c-5.891.94-10.3-3.487-16.531-.886l.449 4.19a4.17 4.17 0 01-.706-.034zm18.21-.747c.57.177.936.542 1.089 1.134.164.659-.017 1.583-.564 2.845a13.65 13.65 0 00-.032.066l-2.347 3.907c-.903 1.505-1.822 3.016-3.047 4.178l-.06.055c.115.172.246.36.377.56.405.603.87 1.294 1.302 1.831 2.55 1.605 8.156 2.036 10.35 3.27 5.58 3.15 3.544 10.797 3.95 16.298-.121 1.3-.849 2.047-2.282 2.158H43.16l1.701-13.043c.132-1.019-.58-1.849-1.46-1.849H31.437c.296-2.13.51-4.167.613-5.705-.558-.625-1.154-1.51-1.668-2.274-.115-.166-.225-.332-.329-.482-1.077.73-2.357 1.184-3.96 1.179-1.789-.006-3.184-.626-4.338-1.572-.323.98-.799 2.33-1.258 2.977a.588.588 0 01-.142.144c.197 1.589.47 3.625.793 5.739H8.895c-.876 0-1.592.83-1.461 1.848l1.701 13.043H7.582c-1.433-.11-2.161-.857-2.281-2.158.07-5.827-2.117-12.877 3.95-16.297 2.22-1.256 7.947-1.682 10.447-3.337.383-.725.804-2.03 1.061-2.805.028-.089-.016.055.028-.072-.92-.996-1.668-2.175-2.39-3.337l-2.057-3.31c-.755-1.134-1.144-2.174-1.171-3.027a2.421 2.421 0 01.202-1.084 2.01 2.01 0 01.706-.83c.148-.1.317-.188.498-.26-.131-1.799-.186-4.062-.099-5.955.044-.448.132-.902.252-1.35.755-2.723 3.069-4.687 5.71-5.611 1.28-.449.789-1.517 2.085-1.445 3.074.172 7.811 2.175 9.633 4.3 2.56 2.972 1.898 6.635 1.816 10.27zM21.902 49.91c-1.039-1.195-1.126-2.446 0-3.769a10.96 10.96 0 013.595 1.672c.235-.106.514-.15.782-.128 1.143-.819 2.598-1.15 3.873-1.765 1.52 1.5 1.357 2.877-.137 4.156a10.185 10.185 0 01-2.39-.886c-.022.2-.072.416-.164.648l.388 3.27h-3.102l.389-3.27c-.241-.415-.334-.77-.328-1.063-.903.548-1.882.902-2.905 1.135z" fill="#fff"/></g><defs><clipPath id="clip0_206_376"><path fill="#fff" d="M0 0h52v68H0z"/></clipPath></defs></svg>