<svg width="52" height="52" fill="none" xmlns="http://www.w3.org/2000/svg"><path d="M26 0c7.18 0 13.68 2.91 18.385 7.615A25.918 25.918 0 0152 26c0 7.178-2.91 13.68-7.615 18.385A25.918 25.918 0 0126 52c-7.18 0-13.68-2.91-18.385-7.615A25.922 25.922 0 010 26c0-7.18 2.91-13.68 7.615-18.385A25.924 25.924 0 0126 0zm-1.86 26.952c-.507-.45-1.143-.84-1.23-1.775l-.053.001a.737.737 0 01-.36-.095.98.98 0 01-.396-.48c-.182-.42-.326-1.523.133-1.838l-.086-.057-.01-.122c-.018-.222-.022-.491-.027-.773-.016-1.037-.037-2.294-.871-2.546l-.358-.108.236-.292c.673-.832 1.377-1.56 2.088-2.12.802-.631 1.619-1.053 2.418-1.174.82-.124 1.616.065 2.351.658.217.175.428.386.631.633.784.076 1.425.498 1.883 1.1.273.36.48.786.613 1.238.131.451.188.93.164 1.402-.045.846-.353 1.672-.977 2.274.11.003.213.028.305.077.347.187.358.59.267.93-.09.283-.205.61-.313.887-.132.372-.324.442-.696.402-.018.91-.683 1.282-1.252 1.813 1.39 2.595 7.283 1.955 7.283 7.114H16.841c0-5.159 5.758-4.45 7.306-7.147l-.008-.002zm-9.263.296a2.635 2.635 0 01-.214-.262 11.85 11.85 0 01-.448-.67l-.711-1.13c-.27-.394-.412-.753-.412-1.038 0-.285.16-.656.483-.739a20.859 20.859 0 01-.029-2.046 2.68 2.68 0 01.086-.47 2.705 2.705 0 011.208-1.534 3.13 3.13 0 01.655-.313c.414-.156.215-.787.67-.796 1.063-.029 2.81.882 3.492 1.62.435.48.683 1.101.697 1.749l-.043 1.861a.527.527 0 01.384.383c.056.229 0 .54-.199.981 0 .014-.015.014-.015.03l-.81 1.335c-.184.302-.374.61-.587.893-.253.34-.462.278-.245.602.18.249.39.45.622.618-1.676.826-3.186 1.95-3.513 4.41H9.613c0-4.243 3.783-2.895 5.333-5.028.179-.262.131-.242-.07-.456zm18.566.191a2.465 2.465 0 01-.206-.253 11.33 11.33 0 01-.432-.645l-.687-1.093a2.494 2.494 0 01-.341-.668c.048-.136.094-.272.141-.413.02-.05.039-.102.052-.155.036-.133.063-.273.078-.418a.518.518 0 01.14-.059 20.236 20.236 0 01-.043-1.242c0-.127.003-.255.005-.382.13-.382.209-.78.242-1.184.223-.456.575-.84 1.016-1.102.198-.124.411-.226.633-.302.399-.15.206-.76.646-.768 1.025-.027 2.712.852 3.37 1.565.42.463.658 1.062.673 1.687l-.042 1.796a.508.508 0 01.37.37c.056.22 0 .52-.192.947 0 .014-.013.014-.013.028l-.782 1.289c-.178.291-.36.589-.567.862-.245.327-.446.268-.238.58 1.498 2.059 5.121.76 5.121 4.854h-5.579c-.339-2.507-1.923-3.641-3.645-4.474a2.32 2.32 0 00.348-.38c.171-.252.127-.234-.068-.44zm-5.51-23.871v3.866h-3.387V3.532A22.442 22.442 0 0010.08 10.08a22.44 22.44 0 00-6.565 14.763h4.59v3.386h-4.51a22.439 22.439 0 006.485 13.69 22.432 22.432 0 0014.466 6.549v-3.315h3.387v3.28A22.445 22.445 0 0041.92 41.92a22.44 22.44 0 006.485-13.69h-4.032v-3.387h4.112A22.44 22.44 0 0041.92 10.08a22.445 22.445 0 00-13.987-6.512z" fill="#fff"/></svg>