<svg width="56" height="52" fill="none" xmlns="http://www.w3.org/2000/svg"><path fill-rule="evenodd" clip-rule="evenodd" d="M37.931 25.03h13.74c1.862 0 3.388 1.303 3.388 2.893v11.858c0 1.59-1.526 2.892-3.388 2.892H37.93c-5.681 0-10.332-3.97-10.332-8.82.005-4.856 4.646-8.822 10.332-8.822zM22.353 8.514l2.25 1.814L29.47 6.11c.431-.372.698-.668 1.228-.208l1.714 1.502c.565.473.535.752.005 1.197l-6.835 5.505c-1.12.94-.926.994-2.06.034l-4.052-3.21c-.238-.22-.213-.44.05-.66l1.99-1.763c.293-.266.53-.249.842.005zM5.44 11.1h8.767a9.108 9.108 0 01-.025-.639C14.186 4.686 19.669 0 26.44 0c6.766 0 12.254 4.686 12.254 10.462 0 .212-.01.423-.02.635l3.224-.005c3.294-.004 5.989 2.2 5.989 5.011v.838c1.624.918 2.7 2.49 2.7 4.267v1.844h-3.805V21.82c0-1.324-1.268-2.402-2.813-2.402H8.975v-2.677c0-.355.342-.647.758-.647h6.38a9.93 9.93 0 01-1.07-1.78H6.285c-1.09 0-1.976.76-1.976 1.687v30.714c0 .93.892 1.688 1.976 1.688h38.486c1.09 0 1.977-.762 1.977-1.688v-1.932h3.903v3.193h-.01c-.015 2.207-2.774 3.987-5.498 3.987H5.423C2.443 51.96 0 49.875 0 47.33V15.744c0-2.554 2.447-4.643 5.439-4.643zm32.393 3.21a9.93 9.93 0 01-1.07 1.78h7.826c.218 0 .43.008.644.03v-.123c0-.93-.892-1.688-1.976-1.688h-5.424zm.619 13.95h12.19v11.182H38.45c-3.6 0-6.548-2.517-6.548-5.59 0-3.08 2.947-5.591 6.548-5.591zM41.448 32c1.233 0 2.233.854 2.233 1.907s-1 1.907-2.233 1.907c-1.234 0-2.234-.854-2.234-1.907s1-1.907 2.234-1.907z" fill="#fff"/></svg>