<svg width="52" height="62" fill="none" xmlns="http://www.w3.org/2000/svg"><path fill-rule="evenodd" clip-rule="evenodd" d="M26.06 10.757v15.909h8.043a.152.152 0 01.158.151v1.73a.152.152 0 01-.158.152H16.41a.153.153 0 01-.157-.151v-1.73a.15.15 0 01.097-.142.18.18 0 01.06-.01h8.042V10.767A2.46 2.46 0 0122.93 9.28h-5.074v.767a.151.151 0 01-.152.151H16.41a.153.153 0 01-.157-.151V9.28h-1.294a.169.169 0 01-.161-.094.165.165 0 01-.017-.063V7.826a.165.165 0 01.056-.115.168.168 0 01.122-.042h7.997c.17-.465.481-.868.89-1.152a2.44 2.44 0 012.786 0c.409.284.72.687.89 1.152h8.033a.163.163 0 01.177.152v1.296a.166.166 0 01-.177.157h-1.457v.767a.15.15 0 01-.097.141.155.155 0 01-.06.01h-1.304a.154.154 0 01-.145-.092.15.15 0 01-.012-.06v-.76h-4.937a2.44 2.44 0 01-1.482 1.478zM14.427 35.945a.928.928 0 011.017-.203.946.946 0 01.302 1.534l-1.603 1.615 1.603 1.61a.936.936 0 01-.657 1.597.924.924 0 01-.657-.275l-1.593-1.605-1.599 1.605a.927.927 0 01-1.319 0 .941.941 0 010-1.332l1.598-1.61-1.598-1.614a.93.93 0 01.018-1.3.942.942 0 011.306-.022l1.594 1.604 1.593-1.61-.005.006zM3.045 2.715a.33.33 0 00-.335.312v55.936a.317.317 0 00.314.312h45.952a.32.32 0 00.314-.312V3.027a.322.322 0 00-.314-.312H3.024h.02zm0 59.285a3.053 3.053 0 01-2.153-.887A3.019 3.019 0 010 58.973V3.027c0-.803.32-1.573.892-2.14A3.053 3.053 0 013.044 0h45.912c.807 0 1.581.319 2.152.887.571.567.892 1.337.892 2.14v55.94a3.02 3.02 0 01-.892 2.141 3.053 3.053 0 01-2.152.887L3.044 62zm38.365-9.647c.351-.021.68-.175.922-.43a1.368 1.368 0 000-1.88 1.384 1.384 0 00-.922-.43H23.077c-.35.021-.68.175-.921.43a1.368 1.368 0 000 1.88c.24.255.57.409.921.43h18.338-.005zm0-12.135a1.388 1.388 0 001.03-.37 1.372 1.372 0 00.32-1.544 1.373 1.373 0 00-.796-.746 1.388 1.388 0 00-.554-.08H23.077c-.35.022-.68.175-.921.43a1.368 1.368 0 000 1.881c.24.255.57.408.921.43H41.41zM9.95 50.915a1.213 1.213 0 01.758-1.918 1.23 1.23 0 011.272.566l.705.978 2.639-3.198a1.225 1.225 0 012.13.666 1.21 1.21 0 01-.242.878l-3.654 4.42a1.4 1.4 0 01-.294.277 1.234 1.234 0 01-1.7-.333l-1.583-2.336h-.03zm23.778-39.86l5.19 9.127c.044.076.066.16.067.248v.03c0 2.164-2.537 3.92-5.719 3.92-3.181 0-5.668-1.715-5.718-3.85a.425.425 0 010-.116.502.502 0 01.08-.267l5.293-9.082a.474.474 0 01.477-.237.479.479 0 01.365.257l-.035-.03zm0 1.978v6.882h3.907l-3.907-6.867v-.015zm-.883 6.882v-6.857l-3.993 6.857h3.993zM17.47 11.07l5.17 9.112c.046.075.067.16.062.248v.03c0 2.164-2.537 3.92-5.719 3.92-3.181 0-5.668-1.715-5.723-3.85a.734.734 0 010-.11c0-.097.028-.192.08-.273l5.293-9.082a.507.507 0 01.655-.177c.08.048.144.116.187.197l-.005-.015zm0 1.978v6.867h3.907l-3.907-6.867zm-.903 6.867v-6.857l-3.993 6.857h3.993zm8.677-12.488a1.065 1.065 0 01.983.648 1.049 1.049 0 01-.226 1.15 1.062 1.062 0 01-1.813-.743 1.046 1.046 0 01.65-.975 1.06 1.06 0 01.406-.08z" fill="#fff"/></svg>