<svg width="52" height="68" viewBox="0 0 52 68" fill="none" xmlns="http://www.w3.org/2000/svg">
<g clip-path="url(#clip0_206_376)">
<path fill-rule="evenodd" clip-rule="evenodd" d="M25.9726 60.0036C27.1816 60.0036 28.1607 60.9941 28.1607 62.2171C28.1607 63.4401 27.1816 64.4307 25.9726 64.4307C24.7637 64.4307 23.7846 63.4401 23.7846 62.2171C23.7846 60.9941 24.7637 60.0036 25.9726 60.0036ZM11.8376 37.3424C11.8048 37.276 11.7665 37.2152 11.7227 37.1543C11.5312 36.8389 11.3398 36.5234 11.1483 36.1637C10.9569 35.7764 10.7654 35.4111 10.5958 35.0736C10.4263 34.7083 10.2622 34.321 10.1199 33.9336C9.99958 33.596 9.85735 33.2087 9.71513 32.7493C9.50179 32.0964 8.90006 31.6868 8.25458 31.6868H4.11361C3.97139 31.6868 3.82916 31.6647 3.7307 31.6149C3.6377 31.5651 3.51736 31.4932 3.44624 31.3991C3.35325 31.2995 3.27667 31.2054 3.23291 31.1113C3.18367 31.0173 3.16179 30.8678 3.16179 30.724V25.4447C3.16179 25.3008 3.18367 25.179 3.21102 25.0794C3.26026 24.9798 3.33137 24.8636 3.45171 24.7419C3.54471 24.6478 3.64317 24.5703 3.73617 24.5482C3.83463 24.4984 3.97686 24.4762 4.11908 24.4762H7.92089C8.68672 24.4762 9.31033 23.9173 9.45256 23.1924C9.54555 22.7829 9.64401 22.3955 9.73701 22.0524C9.85735 21.665 9.9777 21.2998 10.1199 20.9124C10.2622 20.5472 10.4044 20.1598 10.5958 19.8001C10.7654 19.4128 10.9569 19.0752 11.121 18.7376C11.4547 18.1068 11.3343 17.3818 10.8584 16.9004L7.89354 13.8734C7.87166 13.8512 7.87166 13.8512 7.84431 13.8512C7.75132 13.7572 7.67473 13.6576 7.63097 13.5635C7.58174 13.4694 7.58174 13.3698 7.58174 13.2259C7.58174 13.082 7.60362 12.9603 7.65285 12.8607C7.70208 12.7389 7.7732 12.6449 7.89354 12.5231L11.5531 8.8431C11.6735 8.72135 11.7665 8.64941 11.8868 8.59961C11.9853 8.5498 12.1001 8.52767 12.2478 8.52767C12.3901 8.52767 12.5104 8.5498 12.6089 8.59961C12.7073 8.64941 12.8222 8.72135 12.9207 8.81543H12.9426L15.6449 11.5492C16.17 12.0804 17.0069 12.1523 17.6087 11.7207C17.9205 11.527 18.2323 11.3333 18.5878 11.1396C18.9708 10.946 19.3318 10.7523 19.6655 10.5807C20.0265 10.4092 20.4094 10.2432 20.7923 10.0993C21.126 9.97754 21.5089 9.83366 21.963 9.68978C22.6085 9.47396 23.0133 8.86523 23.0133 8.21224V4.01758C23.0133 3.8737 23.0351 3.72982 23.0844 3.63021C23.1336 3.53613 23.2047 3.43652 23.2758 3.34245C23.3743 3.24837 23.4673 3.1709 23.5603 3.14876C23.6533 3.09896 23.801 3.07682 23.9432 3.07682H27.6192H27.663H28.0404C28.1826 3.07682 28.3248 3.09896 28.4233 3.14876C28.5163 3.1709 28.6148 3.24837 28.7078 3.34245C28.7789 3.43652 28.85 3.53613 28.8992 3.63021C28.9485 3.72428 28.9703 3.8737 28.9703 4.01758V8.20671C28.9703 8.8597 29.3751 9.46289 30.0206 9.68424C30.4746 9.82812 30.8576 9.972 31.1912 10.0937C31.5742 10.2376 31.9571 10.4092 32.3181 10.5752C32.6518 10.7467 33.0128 10.9404 33.3957 11.1341C33.7568 11.3278 34.0631 11.5215 34.3749 11.7152C34.9712 12.1523 35.8081 12.0804 36.3387 11.5436L39.041 8.8099H39.0629C39.1559 8.71582 39.2762 8.63835 39.3747 8.59408C39.4677 8.54427 39.5881 8.52213 39.7357 8.52213C39.878 8.52213 39.9983 8.54427 40.0968 8.59408C40.2171 8.64388 40.3101 8.71582 40.4305 8.83756L44.09 12.5176C44.2104 12.6393 44.2815 12.7334 44.3307 12.8551C44.38 12.9492 44.4019 13.071 44.4019 13.2204C44.4019 13.3643 44.4019 13.4639 44.3526 13.5579C44.3034 13.6576 44.2323 13.7516 44.1393 13.8457C44.1174 13.8457 44.1174 13.8457 44.09 13.8678L41.1252 16.8949C40.6493 17.3763 40.5289 18.1068 40.8626 18.7321C41.0322 19.0697 41.2237 19.4072 41.3878 19.7946C41.5792 20.1598 41.7214 20.5472 41.8637 20.9069C42.0059 21.2943 42.1262 21.6595 42.2466 22.0469C42.3396 22.3844 42.438 22.7718 42.531 23.1868C42.6733 23.9118 43.2969 24.4707 44.0627 24.4707H47.8645C48.0067 24.4707 48.149 24.4928 48.2474 24.5426C48.3404 24.5648 48.4389 24.6367 48.5319 24.7363C48.6522 24.8581 48.7233 24.9798 48.7726 25.0739C48.7944 25.168 48.8218 25.2897 48.8218 25.4391V30.7184C48.8218 30.8623 48.7999 31.0062 48.7507 31.1058C48.7015 31.2054 48.6303 31.2995 48.5373 31.3936C48.4662 31.4876 48.3459 31.5651 48.2529 31.6094C48.1544 31.6592 48.0122 31.6813 47.87 31.6813H43.729C43.0835 31.6813 42.4873 32.0908 42.2685 32.7438C42.1262 33.2031 41.984 33.5905 41.8637 33.9281C41.7214 34.3154 41.5519 34.7028 41.3878 35.068C41.2182 35.4056 41.0267 35.7708 40.8353 36.1582C40.6438 36.5234 40.4523 36.8389 40.2609 37.1488C40.2171 37.2096 40.1788 37.2705 40.146 37.3369H43.7673C43.9205 37.027 44.0736 36.695 44.2323 36.3519C44.4237 35.9147 44.6152 35.4831 44.7848 35.0459C44.8067 34.974 44.8559 34.8743 44.8832 34.8024H47.9466C48.4991 34.8024 49.0242 34.7083 49.5001 34.5146C49.976 34.321 50.4355 34.0055 50.8184 33.6182C51.2013 33.2308 51.5131 32.7936 51.7046 32.2845C51.8961 31.7754 51.9891 31.2663 51.9891 30.7129V25.4391C51.9891 24.9079 51.8687 24.3766 51.6773 23.8896C51.4858 23.4082 51.2013 22.971 50.8184 22.5837L50.7966 22.5615C50.4136 22.1742 49.9815 21.8587 49.5056 21.665C49.0297 21.4492 48.4991 21.3496 47.952 21.3496H45.3427C45.3427 21.2777 45.3209 21.2279 45.2935 21.1559C45.1513 20.6966 45.009 20.2373 44.8395 19.8001C44.648 19.3408 44.4784 18.9036 44.287 18.4941C44.2651 18.4443 44.2159 18.3724 44.194 18.3005L46.3493 16.098C46.7541 15.7327 47.044 15.3011 47.2573 14.8141C47.4488 14.3327 47.5691 13.7959 47.5691 13.2425C47.5691 12.6836 47.4761 12.18 47.2573 11.6709C47.044 11.1895 46.754 10.7523 46.3711 10.3649H46.3493L42.6897 6.6849C42.3068 6.29753 41.8746 6.00977 41.3713 5.78841C40.8681 5.57259 40.3648 5.47298 39.8178 5.47298C39.2927 5.47298 38.7675 5.56706 38.2643 5.78841C37.761 5.9821 37.3288 6.29753 36.9459 6.6849L35.0806 8.5498L34.9384 8.47786C34.5554 8.26204 34.1233 8.06836 33.6693 7.847C33.2371 7.65332 32.8104 7.45963 32.3783 7.28809C32.3072 7.26595 32.2087 7.21615 32.1376 7.18848V4.08952C32.1376 3.5306 32.0446 2.99935 31.8531 2.5179C31.6617 2.03092 31.3499 1.57161 30.967 1.18424C30.5622 0.796875 30.13 0.481445 29.6486 0.28776C29.1509 0.0940755 28.6476 0 28.0951 0H26.2079H25.7867H23.8994C23.3469 0 22.8491 0.0940755 22.3459 0.28776C21.87 0.481445 21.4378 0.796875 21.0276 1.18424C20.6446 1.57161 20.3328 2.03092 20.1414 2.5179C19.9499 2.99935 19.8569 3.53613 19.8569 4.08952V7.18848C19.7858 7.21061 19.6874 7.26042 19.6162 7.28809C19.1841 7.45963 18.7574 7.65332 18.3253 7.847C17.8712 8.06283 17.4391 8.25651 17.0562 8.47786L16.9139 8.5498L15.0486 6.6849C14.6657 6.29753 14.2335 5.9821 13.7303 5.78841C13.227 5.57259 12.7019 5.47298 12.1767 5.47298C11.6242 5.47298 11.1264 5.56706 10.6232 5.78841C10.1199 6.00423 9.68778 6.29753 9.30486 6.6849L5.64528 10.3649H5.6234C5.24048 10.7523 4.95603 11.1895 4.73722 11.6709C4.52388 12.1745 4.42542 12.6836 4.42542 13.237C4.42542 13.7959 4.54576 14.3271 4.73722 14.8086C4.95056 15.29 5.24048 15.7272 5.64528 16.0924L7.80055 18.2949C7.77867 18.3669 7.72943 18.4388 7.70755 18.4886C7.5161 18.8981 7.34652 19.3353 7.15506 19.7946C6.98548 20.2318 6.84326 20.6911 6.70103 21.1504C6.67915 21.2223 6.6518 21.2721 6.6518 21.3441H4.0425C3.49001 21.3441 2.96486 21.4437 2.48895 21.6595C2.01304 21.8532 1.5809 22.1686 1.19798 22.556L1.1761 22.5781C0.793183 22.9655 0.508731 23.4027 0.317273 23.8841C0.120345 24.3711 0 24.9079 0 25.4391V30.7129C0 31.2718 0.0929939 31.7754 0.284452 32.2845C0.47591 32.7936 0.787713 33.2308 1.17063 33.6182C1.55355 34.0055 2.00757 34.321 2.48895 34.5146C2.96486 34.7083 3.49548 34.8024 4.0425 34.8024H7.10583C7.12771 34.8743 7.17694 34.974 7.20429 35.0459C7.37387 35.4831 7.56533 35.9147 7.75679 36.3519C7.92089 36.7005 8.06859 37.0326 8.22176 37.3369H11.8376V37.3424ZM17.7618 32.445C17.3078 32.4616 16.9577 32.5557 16.7225 32.7217C16.5857 32.8158 16.4873 32.932 16.4271 33.0703C16.356 33.2253 16.3232 33.4134 16.3286 33.6292C16.345 34.2601 16.6733 35.0902 17.3078 36.0475L17.3187 36.0586L19.3756 39.3734C20.2016 40.7015 21.0659 42.0573 22.1435 43.0478C23.1774 44.0052 24.43 44.6527 26.093 44.6582C27.8872 44.6637 29.2056 43.9886 30.2722 42.9814C31.3827 41.93 32.2579 40.4912 33.1168 39.0524L35.4361 35.1898C35.8683 34.1937 36.0269 33.5241 35.9285 33.1312C35.8683 32.8988 35.6167 32.7826 35.179 32.7604C35.086 32.7549 34.9931 32.7549 34.8946 32.7549C34.7907 32.7604 34.6813 32.7659 34.5718 32.777C34.5117 32.7826 34.4515 32.777 34.3913 32.7659C34.1835 32.777 33.9701 32.7604 33.7568 32.7327L34.55 29.1745C28.6585 30.1152 24.2495 25.6881 18.0189 28.2891L18.4675 32.4782C18.2213 32.4837 17.9806 32.4782 17.7618 32.445ZM35.9722 31.6979C36.5411 31.875 36.9076 32.2402 37.0608 32.8324C37.2249 33.4909 37.0444 34.415 36.4974 35.6768C36.4864 35.6989 36.4755 35.721 36.4646 35.7432L34.1178 39.6501C33.2152 41.1553 32.2962 42.666 31.0709 43.8281L31.0107 43.8835C31.1256 44.055 31.2569 44.2432 31.3882 44.4424C31.793 45.0456 32.2579 45.7373 32.6901 46.2741C35.2392 47.8789 40.8462 48.3105 43.0398 49.5446C48.6194 52.6934 46.5845 60.3411 46.9893 65.8418C46.8689 67.1423 46.1414 67.8893 44.7082 68H43.1601L44.8614 54.9567C44.9926 53.9385 44.2815 53.1084 43.4008 53.1084H31.4374C31.7328 50.9779 31.9461 48.9414 32.0501 47.403C31.4921 46.7777 30.8959 45.8923 30.3817 45.1286C30.2668 44.9626 30.1574 44.7965 30.0534 44.6471C28.9758 45.3776 27.6958 45.8314 26.093 45.8258C24.3042 45.8203 22.9093 45.2005 21.7551 44.2542C21.4324 45.2337 20.9564 46.584 20.497 47.2314C20.4587 47.2868 20.4094 47.3366 20.3547 47.3753C20.5517 48.9635 20.8252 51 21.1479 53.1139H8.89459C8.01936 53.1139 7.30276 53.944 7.43404 54.9622L9.13528 68.0055H7.58174C6.14854 67.8949 5.421 67.1478 5.30065 65.8473C5.37177 60.0202 3.18367 52.97 9.25016 49.5501C11.4711 48.2939 17.1984 47.8678 19.6983 46.2132C20.0812 45.4883 20.5024 44.1823 20.7595 43.4076C20.7869 43.319 20.7431 43.4629 20.7869 43.3356C19.8679 42.3395 19.1185 41.1608 18.3964 39.9987L16.3396 36.6895C15.5847 35.555 15.1963 34.5146 15.1689 33.6624C15.158 33.264 15.2236 32.8988 15.3713 32.5778C15.5245 32.2458 15.7597 31.9635 16.077 31.7477C16.2247 31.6481 16.3943 31.5596 16.5748 31.4876C16.4435 29.6891 16.3888 27.4258 16.4763 25.5332C16.5201 25.085 16.6076 24.6312 16.728 24.1829C17.4829 21.4603 19.7968 19.4958 22.4389 18.5716C23.7189 18.1234 23.2266 17.0553 24.523 17.1273C27.5973 17.2988 32.3345 19.3021 34.1561 21.4271C36.7162 24.3988 36.0543 28.0622 35.9722 31.6979ZM21.9028 49.9098C20.8635 48.7145 20.7759 47.4639 21.9028 46.1413C23.2047 46.4733 24.3972 47.0433 25.4967 47.8125C25.732 47.7074 26.0109 47.6631 26.279 47.6852C27.4223 46.8662 28.8773 46.5342 30.1519 45.9199C31.6726 47.4196 31.5085 48.7975 30.0151 50.0758C29.1782 49.8822 28.385 49.5833 27.6247 49.1904C27.6028 49.3896 27.5535 49.6055 27.4606 49.8379L27.8489 53.1084H24.7473L25.1357 49.8379C24.895 49.4228 24.802 49.0687 24.8075 48.7754C23.9049 49.3232 22.9257 49.6774 21.9028 49.9098Z" fill="white"/>
</g>
<defs>
<clipPath id="clip0_206_376">
<rect width="52" height="68" fill="white"/>
</clipPath>
</defs>
</svg>
